MoBL_ARMS_Upper_Limb_Model_OpenSim_states
version=1
nRows=4
nColumns=55
inDegrees=yes

# SIMM Motion File Header:
name MoBL_ARMS_Upper_Limb_Model_OpenSim_states
datacolumns 55
datarows 4
otherdata 1
range 0.05689095 0.05895675
endheader
time	/jointset/sternoclavicular/sternoclavicular_r2/value	/jointset/sternoclavicular/sternoclavicular_r2/speed	/jointset/sternoclavicular/sternoclavicular_r3/value	/jointset/sternoclavicular/sternoclavicular_r3/speed	/jointset/unrotscap/unrotscap_r3/value	/jointset/unrotscap/unrotscap_r3/speed	/jointset/unrotscap/unrotscap_r2/value	/jointset/unrotscap/unrotscap_r2/speed	/jointset/acromioclavicular/acromioclavicular_r2/value	/jointset/acromioclavicular/acromioclavicular_r2/speed	/jointset/acromioclavicular/acromioclavicular_r3/value	/jointset/acromioclavicular/acromioclavicular_r3/speed	/jointset/acromioclavicular/acromioclavicular_r1/value	/jointset/acromioclavicular/acromioclavicular_r1/speed	/jointset/unrothum/unrothum_r1/value	/jointset/unrothum/unrothum_r1/speed	/jointset/unrothum/unrothum_r3/value	/jointset/unrothum/unrothum_r3/speed	/jointset/unrothum/unrothum_r2/value	/jointset/unrothum/unrothum_r2/speed	/jointset/shoulder0/elv_angle/value	/jointset/shoulder0/elv_angle/speed	/jointset/shoulder1/shoulder_elv/value	/jointset/shoulder1/shoulder_elv/speed	/jointset/shoulder1/shoulder1_r2/value	/jointset/shoulder1/shoulder1_r2/speed	/jointset/shoulder2/shoulder_rot/value	/jointset/shoulder2/shoulder_rot/speed	/jointset/elbow/elbow_flexion/value	/jointset/elbow/elbow_flexion/speed	/jointset/radioulnar/pro_sup/value	/jointset/radioulnar/pro_sup/speed	/jointset/radiocarpal/deviation/value	/jointset/radiocarpal/deviation/speed	/jointset/radiocarpal/flexion/value	/jointset/radiocarpal/flexion/speed	/jointset/wrist_hand/wrist_hand_r1/value	/jointset/wrist_hand/wrist_hand_r1/speed	/jointset/wrist_hand/wrist_hand_r3/value	/jointset/wrist_hand/wrist_hand_r3/speed	/forceset/SUP/activation	/forceset/SUP/fiber_length	/forceset/ECRL/activation	/forceset/ECRL/fiber_length	/forceset/ECRB/activation	/forceset/ECRB/fiber_length	/forceset/ECU/activation	/forceset/ECU/fiber_length	/forceset/FCR/activation	/forceset/FCR/fiber_length	/forceset/FCU/activation	/forceset/FCU/fiber_length	/forceset/PQ/activation	/forceset/PQ/fiber_length
      0.05689095	    -14.09290159	      0.00000000	      5.96908796	     -0.00000000	     -5.96908796	      0.00000000	     14.09290159	     -0.00000000	     -2.85352590	      0.00000000	     23.06119258	     -0.00000000	     10.36584735	     -0.00000000	    -10.36584735	      0.00000000	    -23.06119258	      0.00000000	      2.85352590	     -0.00000000	     -0.00000000	     -0.00000000	     58.23500000	     -0.00000000	      0.00000000	      0.00000000	     13.52900000	     -0.00000000	     95.58800000	      0.00000000	      0.31545354	     24.62002232	      0.30509939	     11.26931617	      0.15206762	      6.64753514	     19.35861494	    553.79619405	      4.35641643	    190.43785397	      0.01000000	      0.03596178	      0.01000000	      0.07165810	      0.01000000	      0.06419484	      0.01000000	      0.06503080	      0.01000000	      0.05531809	      0.01000000	      0.04053525	      0.01000000	      0.02657373
      0.05757955	    -14.09290159	      0.00000000	      5.96908796	     -0.00000000	     -5.96908796	      0.00000000	     14.09290159	     -0.00000000	     -2.85352590	      0.00000000	     23.06119258	     -0.00000000	     10.36584735	     -0.00000000	    -10.36584735	      0.00000000	    -23.06119258	      0.00000000	      2.85352590	     -0.00000000	     -0.00000000	     -0.00000000	     58.23500000	     -0.00000000	      0.00000000	      0.00000000	     13.52900000	     -0.00000000	     95.58800000	      0.00000000	      0.33268301	     25.42605569	      0.31293273	     11.48326444	      0.15670600	      6.82562853	     19.74068312	    555.87304049	      4.48929635	    195.53985357	      0.01000000	      0.03596451	      0.01000000	      0.07151447	      0.01000000	      0.06426972	      0.01000000	      0.06494372	      0.01000000	      0.05520674	      0.01000000	      0.04044499	      0.01000000	      0.02657162
      0.05826815	    -14.09290159	      0.00000000	      5.96908796	     -0.00000000	     -5.96908796	      0.00000000	     14.09290159	     -0.00000000	     -2.85352590	      0.00000000	     23.06119258	     -0.00000000	     10.36584735	     -0.00000000	    -10.36584735	      0.00000000	    -23.06119258	      0.00000000	      2.85352590	     -0.00000000	     -0.00000000	     -0.00000000	     58.23500000	     -0.00000000	      0.00000000	      0.00000000	     13.52900000	     -0.00000000	     95.58800000	      0.00000000	      0.35047721	     26.26142609	      0.32091532	     11.70261725	      0.16146936	      7.01036288	     20.12410992	    557.72933179	      4.62575628	    200.83210294	      0.01000000	      0.03596733	      0.01000000	      0.07137085	      0.01000000	      0.06435688	      0.01000000	      0.06485677	      0.01000000	      0.05509538	      0.01000000	      0.04035474	      0.01000000	      0.02656945
      0.05895675	    -14.09290159	      0.00000000	      5.96908796	     -0.00000000	     -5.96908796	      0.00000000	     14.09290159	     -0.00000000	     -2.85352590	      0.00000000	     23.06119258	     -0.00000000	     10.36584735	     -0.00000000	    -10.36584735	      0.00000000	    -23.06119258	      0.00000000	      2.85352590	     -0.00000000	     -0.00000000	     -0.00000000	     58.23500000	     -0.00000000	      0.00000000	      0.00000000	     13.52900000	     -0.00000000	     95.58800000	      0.00000000	      0.36885648	     27.12473691	      0.32905106	     11.92838626	      0.16636246	      7.20281234	     20.50874297	    559.38679650	      4.76593349	    206.34537379	      0.01000000	      0.03597026	      0.01000000	      0.07122722	      0.01000000	      0.06443181	      0.01000000	      0.06476999	      0.01000000	      0.05498403	      0.01000000	      0.04026449	      0.01000000	      0.02656720
